<svg width="69" height="31" viewBox="0 0 69 31" fill="none" xmlns="http://www.w3.org/2000/svg">
<g id="Sync">
<path d="M13.1406 18.0469C13.1406 17.6406 13.0781 17.276 12.9531 16.9531C12.8385 16.6198 12.6198 16.3177 12.2969 16.0469C11.974 15.7656 11.5208 15.4896 10.9375 15.2188C10.3542 14.9479 9.59896 14.6667 8.67188 14.375C7.64062 14.0417 6.66146 13.6667 5.73438 13.25C4.81771 12.8333 4.00521 12.349 3.29688 11.7969C2.59896 11.2344 2.04688 10.5833 1.64062 9.84375C1.24479 9.10417 1.04688 8.24479 1.04688 7.26562C1.04688 6.31771 1.25521 5.45833 1.67188 4.6875C2.08854 3.90625 2.67188 3.23958 3.42188 2.6875C4.17188 2.125 5.05729 1.69271 6.07812 1.39062C7.10938 1.08854 8.23958 0.9375 9.46875 0.9375C11.1458 0.9375 12.6094 1.23958 13.8594 1.84375C15.1094 2.44792 16.0781 3.27604 16.7656 4.32812C17.4635 5.38021 17.8125 6.58333 17.8125 7.9375H13.1562C13.1562 7.27083 13.0156 6.6875 12.7344 6.1875C12.4635 5.67708 12.0469 5.27604 11.4844 4.98438C10.9323 4.69271 10.2344 4.54688 9.39062 4.54688C8.57812 4.54688 7.90104 4.67188 7.35938 4.92188C6.81771 5.16146 6.41146 5.48958 6.14062 5.90625C5.86979 6.3125 5.73438 6.77083 5.73438 7.28125C5.73438 7.66667 5.82812 8.01562 6.01562 8.32812C6.21354 8.64062 6.50521 8.93229 6.89062 9.20312C7.27604 9.47396 7.75 9.72917 8.3125 9.96875C8.875 10.2083 9.52604 10.4427 10.2656 10.6719C11.5052 11.0469 12.5938 11.4688 13.5312 11.9375C14.4792 12.4062 15.2708 12.9323 15.9062 13.5156C16.5417 14.099 17.0208 14.7604 17.3438 15.5C17.6667 16.2396 17.8281 17.0781 17.8281 18.0156C17.8281 19.0052 17.6354 19.8906 17.25 20.6719C16.8646 21.4531 16.3073 22.1146 15.5781 22.6562C14.849 23.1979 13.9792 23.6094 12.9688 23.8906C11.9583 24.1719 10.8281 24.3125 9.57812 24.3125C8.45312 24.3125 7.34375 24.1667 6.25 23.875C5.15625 23.5729 4.16146 23.1198 3.26562 22.5156C2.38021 21.9115 1.67188 21.1406 1.14062 20.2031C0.609375 19.2656 0.34375 18.1562 0.34375 16.875H5.04688C5.04688 17.5833 5.15625 18.1823 5.375 18.6719C5.59375 19.1615 5.90104 19.5573 6.29688 19.8594C6.70312 20.1615 7.18229 20.3802 7.73438 20.5156C8.29688 20.651 8.91146 20.7188 9.57812 20.7188C10.3906 20.7188 11.0573 20.6042 11.5781 20.375C12.1094 20.1458 12.5 19.8281 12.75 19.4219C13.0104 19.0156 13.1406 18.5573 13.1406 18.0469Z" fill="#27284A"/>
<path d="M25.75 22.0938L30.2344 7.09375H35.0625L28.2656 26.5469C28.1198 26.974 27.9219 27.4323 27.6719 27.9219C27.4323 28.4115 27.1042 28.875 26.6875 29.3125C26.2812 29.7604 25.7656 30.125 25.1406 30.4062C24.526 30.6875 23.7708 30.8281 22.875 30.8281C22.4479 30.8281 22.099 30.8021 21.8281 30.75C21.5573 30.6979 21.2344 30.625 20.8594 30.5312V27.2344C20.974 27.2344 21.0938 27.2344 21.2188 27.2344C21.3438 27.2448 21.4635 27.25 21.5781 27.25C22.1719 27.25 22.6562 27.1823 23.0312 27.0469C23.4062 26.9115 23.7083 26.7031 23.9375 26.4219C24.1667 26.151 24.349 25.7969 24.4844 25.3594L25.75 22.0938ZM23.875 7.09375L27.5469 19.3438L28.1875 24.1094L25.125 24.4375L19.0469 7.09375H23.875Z" fill="#27284A"/>
<path d="M41.2656 10.7031V24H36.7656V7.09375H40.9844L41.2656 10.7031ZM40.6094 14.9531H39.3906C39.3906 13.7031 39.5521 12.5781 39.875 11.5781C40.1979 10.5677 40.651 9.70833 41.2344 9C41.8177 8.28125 42.5104 7.73438 43.3125 7.35938C44.125 6.97396 45.0312 6.78125 46.0312 6.78125C46.8229 6.78125 47.5469 6.89583 48.2031 7.125C48.8594 7.35417 49.4219 7.71875 49.8906 8.21875C50.3698 8.71875 50.7344 9.38021 50.9844 10.2031C51.2448 11.026 51.375 12.0312 51.375 13.2188V24H46.8438V13.2031C46.8438 12.4531 46.7396 11.8698 46.5312 11.4531C46.3229 11.0365 46.0156 10.7448 45.6094 10.5781C45.2135 10.401 44.724 10.3125 44.1406 10.3125C43.5365 10.3125 43.0104 10.4323 42.5625 10.6719C42.125 10.9115 41.7604 11.2448 41.4688 11.6719C41.1875 12.0885 40.974 12.5781 40.8281 13.1406C40.6823 13.7031 40.6094 14.3073 40.6094 14.9531Z" fill="#27284A"/>
<path d="M61.7812 20.7969C62.3333 20.7969 62.8229 20.6927 63.25 20.4844C63.6771 20.2656 64.0104 19.9635 64.25 19.5781C64.5 19.1823 64.6302 18.7188 64.6406 18.1875H68.875C68.8646 19.375 68.5469 20.4323 67.9219 21.3594C67.2969 22.276 66.4583 23 65.4062 23.5312C64.3542 24.0521 63.1771 24.3125 61.875 24.3125C60.5625 24.3125 59.4167 24.0938 58.4375 23.6562C57.4688 23.2188 56.6615 22.6146 56.0156 21.8438C55.3698 21.0625 54.8854 20.1562 54.5625 19.125C54.2396 18.0833 54.0781 16.9688 54.0781 15.7812V15.3281C54.0781 14.1302 54.2396 13.0156 54.5625 11.9844C54.8854 10.9427 55.3698 10.0365 56.0156 9.26562C56.6615 8.48438 57.4688 7.875 58.4375 7.4375C59.4062 7 60.5417 6.78125 61.8438 6.78125C63.2292 6.78125 64.4427 7.04688 65.4844 7.57812C66.5365 8.10938 67.3594 8.86979 67.9531 9.85938C68.5573 10.8385 68.8646 12 68.875 13.3438H64.6406C64.6302 12.7812 64.5104 12.2708 64.2812 11.8125C64.0625 11.3542 63.7396 10.9896 63.3125 10.7188C62.8958 10.4375 62.3802 10.2969 61.7656 10.2969C61.1094 10.2969 60.5729 10.4375 60.1562 10.7188C59.7396 10.9896 59.4167 11.3646 59.1875 11.8438C58.9583 12.3125 58.7969 12.849 58.7031 13.4531C58.6198 14.0469 58.5781 14.6719 58.5781 15.3281V15.7812C58.5781 16.4375 58.6198 17.0677 58.7031 17.6719C58.7865 18.276 58.9427 18.8125 59.1719 19.2812C59.4115 19.75 59.7396 20.1198 60.1562 20.3906C60.5729 20.6615 61.1146 20.7969 61.7812 20.7969Z" fill="#27284A"/>
</g>
</svg>
