<svg width="134" height="28" viewBox="0 0 134 28" fill="none" xmlns="http://www.w3.org/2000/svg">
<g id="INFLUENCE">
<path d="M0.0161133 27V1.08001H5.26411V27H0.0161133Z" fill="#2E0573"/>
<path d="M9.23336 27V1.08001H12.9134L18.6734 14.584V1.08001H23.0254V27H19.5054L13.7454 12.664V27H9.23336Z" fill="#2E0573"/>
<path d="M26.9521 27V1.08001H37.8961V4.66401H32.2321V11.672H37.0321V15.352H32.2321V27H26.9521Z" fill="#2E0573"/>
<path d="M40.5459 27V1.08001H45.8259V23.416H51.9059V27H40.5459Z" fill="#2E0573"/>
<path d="M61.2794 27.352C59.3167 27.352 57.7914 27.0213 56.7034 26.36C55.6154 25.6773 54.8474 24.7067 54.3994 23.448C53.9727 22.168 53.7594 20.6213 53.7594 18.808V1.08001H58.9754V19.544C58.9754 20.184 59.018 20.8133 59.1034 21.432C59.21 22.0507 59.4234 22.552 59.7434 22.936C60.0847 23.32 60.5967 23.512 61.2794 23.512C61.9834 23.512 62.4954 23.32 62.8154 22.936C63.1567 22.552 63.37 22.0507 63.4554 21.432C63.5407 20.8133 63.5834 20.184 63.5834 19.544V1.08001H68.7994V18.808C68.7994 20.6213 68.5754 22.168 68.1274 23.448C67.7007 24.7067 66.9434 25.6773 65.8554 26.36C64.7674 27.0213 63.242 27.352 61.2794 27.352Z" fill="#2E0573"/>
<path d="M72.4834 27V1.08001H83.7794V4.72801H77.7634V11.608H82.4034V15.288H77.7634V23.416H83.8434V27H72.4834Z" fill="#2E0573"/>
<path d="M86.5146 27V1.08001H90.1946L95.9546 14.584V1.08001H100.307V27H96.7866L91.0266 12.664V27H86.5146Z" fill="#2E0573"/>
<path d="M111.433 27.352C109.513 27.352 107.988 26.9893 106.857 26.264C105.748 25.5387 104.969 24.536 104.521 23.256C104.073 21.9547 103.849 20.4507 103.849 18.744V9.43201C103.849 7.64001 104.073 6.10401 104.521 4.82401C104.969 3.52268 105.748 2.52001 106.857 1.81601C107.988 1.11201 109.513 0.76001 111.433 0.76001C113.289 0.76001 114.74 1.06934 115.785 1.68801C116.852 2.30668 117.599 3.18134 118.025 4.31201C118.473 5.44268 118.697 6.75468 118.697 8.24801V10.424H113.577V7.99201C113.577 7.39468 113.545 6.84001 113.481 6.32801C113.417 5.79468 113.236 5.36801 112.937 5.04801C112.66 4.70668 112.169 4.53601 111.465 4.53601C110.761 4.53601 110.249 4.70668 109.929 5.04801C109.609 5.38934 109.407 5.83734 109.321 6.39201C109.236 6.92534 109.193 7.52268 109.193 8.18401V19.96C109.193 20.6853 109.247 21.3253 109.353 21.88C109.481 22.4133 109.705 22.8293 110.025 23.128C110.367 23.4053 110.847 23.544 111.465 23.544C112.148 23.544 112.628 23.384 112.905 23.064C113.204 22.7227 113.385 22.2747 113.449 21.72C113.535 21.1653 113.577 20.5787 113.577 19.96V17.432H118.697V19.576C118.697 21.0907 118.484 22.4347 118.057 23.608C117.631 24.76 116.895 25.6773 115.849 26.36C114.804 27.0213 113.332 27.352 111.433 27.352Z" fill="#2E0573"/>
<path d="M121.921 27V1.08001H133.217V4.72801H127.201V11.608H131.841V15.288H127.201V23.416H133.281V27H121.921Z" fill="#2E0573"/>
</g>
</svg>
