<svg width="49" height="56" viewBox="0 0 49 56" fill="none" xmlns="http://www.w3.org/2000/svg">
<g id="OBJECTS" clip-path="url(#clip0_729_26)">
<path id="Vector" d="M17.179 6.89741L24.2516 0L31.3242 6.89741L24.2516 19.1431L17.179 6.89741ZM24.2516 36.8477L17.179 49.0934L24.2516 55.9908L31.3242 49.0934L24.2516 36.8477Z" fill="url(#paint0_linear_729_26)"/>
<path id="Vector_2" d="M38.9871 11.3236L48.4941 13.9977L46.0505 23.5693H31.9052L38.9778 11.3236H38.9871ZM16.5796 32.4216H2.44361L0 41.9931L9.50702 44.6673L16.5796 32.4216Z" fill="url(#paint1_linear_729_26)"/>
<path id="Vector_3" d="M2.44361 23.5693L0 13.9977L9.50702 11.3236L16.5796 23.5693H2.44361ZM31.9144 32.4216L38.9871 44.6673L48.4941 41.9931L46.0505 32.4216H31.9052H31.9144Z" fill="url(#paint2_linear_729_26)"/>
</g>
<defs>
<linearGradient id="paint0_linear_729_26" x1="24.2516" y1="56" x2="24.2516" y2="0" gradientUnits="userSpaceOnUse">
<stop stop-color="#7D33A9"/>
<stop offset="0.12" stop-color="#A832C4"/>
<stop offset="0.25" stop-color="#CD31DB"/>
<stop offset="0.37" stop-color="#E831EC"/>
<stop offset="0.48" stop-color="#F931F6"/>
<stop offset="0.56" stop-color="#FF31FA"/>
</linearGradient>
<linearGradient id="paint1_linear_729_26" x1="24.2517" y1="44.6765" x2="24.2517" y2="11.3236" gradientUnits="userSpaceOnUse">
<stop stop-color="#531DB5"/>
<stop offset="1" stop-color="#8733FF"/>
</linearGradient>
<linearGradient id="paint2_linear_729_26" x1="24.2517" y1="44.6765" x2="24.2517" y2="11.3236" gradientUnits="userSpaceOnUse">
<stop stop-color="#0099FF"/>
<stop offset="0.1" stop-color="#0EB1FF"/>
<stop offset="0.23" stop-color="#1FCDFF"/>
<stop offset="0.38" stop-color="#2DE3FF"/>
<stop offset="0.55" stop-color="#36F3FF"/>
<stop offset="0.73" stop-color="#3CFCFF"/>
<stop offset="1" stop-color="#3EFFFF"/>
</linearGradient>
<clipPath id="clip0_729_26">
<rect width="48.4941" height="56" fill="white"/>
</clipPath>
</defs>
</svg>
